<?xml version="1.0" encoding="UTF-8"?><svg id="_レイヤー_1" xmlns="http://www.w3.org/2000/svg" viewBox="0 0 180 36"><defs><style>.cls-1{fill:#a9a9a9;stroke-width:0px;}</style></defs><path class="cls-1" d="M13.9,7.25v16.79c0,1,.01,1.87.04,2.61s.06,1.39.11,1.92.09.99.16,1.35.13.67.2.91v.07h-4.2v-.07c.07-.25.13-.55.19-.91s.11-.81.16-1.35.08-1.18.11-1.92.04-1.61.04-2.61V7.25c-1.38,0-2.63.06-3.74.18s-2.07.25-2.88.4c-.94.18-1.78.37-2.51.58l.51-2.85c.14.01.35.02.63.04s.59.02.94.04.71.02,1.09.03.74.01,1.08.02.64.01.91.02.45,0,.57,0h10.04c.12,0,.31,0,.57,0s.57-.01.91-.02.7-.01,1.08-.02.74-.01,1.09-.03.66-.02.94-.04.49-.02.63-.04l.51,2.85c-.75-.21-1.59-.4-2.53-.58-.81-.14-1.77-.27-2.88-.4s-2.36-.18-3.74-.18ZM42.91,30.34c.16.26.26.42.32.49v.07h-4.62v-.07c.02-.06.04-.15.05-.26s.02-.22.02-.32c0-.36-.05-.76-.14-1.2s-.28-.99-.55-1.64l-2.04-4.78c-.63-.02-1.47-.04-2.51-.04h-5.97c-.83,0-1.57.01-2.24.04l-1.94,4.64c-.17.43-.35.91-.54,1.42s-.29,1.04-.29,1.56c0,.15.01.28.03.38.02.1.04.17.07.2v.07h-3.44v-.07c.2-.22.46-.62.76-1.19s.64-1.28,1-2.14L30.54,5.17h1.35l9.16,21.48c.21.5.44.99.67,1.47.23.47.45.9.65,1.27.2.38.38.69.54.95ZM35.25,21.01l-4.74-11.16-4.66,11.23h1.82c.65,0,1.32,0,2.01,0s1.36-.01,2.02-.02,1.29-.01,1.9-.02,1.16-.01,1.65-.03ZM45.49,5.77c.07.25.13.55.19.91s.11.82.16,1.36.08,1.19.11,1.93.04,1.61.04,2.61v11.44c0,1-.01,1.87-.04,2.61s-.06,1.39-.11,1.92-.1.99-.16,1.35-.12.67-.19.91v.07h4.2v-.07c-.07-.25-.14-.55-.2-.91s-.12-.81-.16-1.35-.08-1.18-.11-1.92-.04-1.61-.04-2.61v-11.44c0-1,.01-1.87.04-2.61s.06-1.39.11-1.93.09-1,.16-1.36.13-.67.2-.91v-.07h-4.2v.07ZM75.49,29.93c-.25-.21-.53-.46-.85-.77s-.71-.7-1.17-1.17l-10.92-11.99,9.07-7.59c.8-.67,1.55-1.23,2.26-1.7s1.41-.78,2.1-.94v-.07h-4.94c0,.68-.57,1.49-1.72,2.43l-10.27,8.38v-3.92c0-1,.01-1.87.04-2.61s.06-1.39.11-1.93.09-1,.16-1.36.13-.67.2-.91v-.07h-4.22v.07c.07.25.14.55.2.91s.12.82.17,1.36.08,1.19.11,1.93.04,1.61.04,2.61v11.44c0,1-.01,1.87-.04,2.61s-.06,1.39-.11,1.92-.1.99-.17,1.35-.13.67-.2.91v.07h4.22v-.07c-.07-.25-.14-.55-.2-.91s-.12-.81-.16-1.35-.08-1.18-.11-1.92-.04-1.61-.04-2.61v-7.21l11.02,12.09c.15.16.31.34.48.53s.33.37.47.54.28.35.39.51.19.3.24.4h5.15v-.07c-.22-.13-.44-.26-.64-.4s-.43-.3-.68-.51ZM78.69,5.77c.07.25.13.55.19.91s.11.82.16,1.36.08,1.19.11,1.93.04,1.61.04,2.61v11.44c0,1-.01,1.87-.04,2.61s-.06,1.39-.11,1.92-.1.99-.16,1.35-.12.67-.19.91v.07h4.2v-.07c-.07-.25-.14-.55-.2-.91s-.12-.81-.16-1.35-.08-1.18-.11-1.92-.04-1.61-.04-2.61v-11.44c0-1,.01-1.87.04-2.61s.06-1.39.11-1.93.09-1,.16-1.36.13-.67.2-.91v-.07h-4.2v.07ZM105.89,19.64c-.72-.81-1.5-1.59-2.34-2.34-.84-.75-1.62-1.5-2.34-2.25s-1.32-1.51-1.8-2.28-.72-1.57-.72-2.42c0-.53.08-1.01.23-1.44.15-.43.38-.81.68-1.12s.68-.56,1.13-.74c.45-.18.96-.26,1.54-.26.65,0,1.22.1,1.7.3s.89.45,1.23.75c.34.3.61.62.82.96s.36.64.45.91h.39l.12-3.29c-.19-.08-.43-.19-.73-.32s-.64-.26-1.04-.39-.84-.24-1.34-.33-1.04-.14-1.63-.14c-.81,0-1.59.14-2.34.42-.76.28-1.44.69-2.03,1.21s-1.08,1.16-1.44,1.91c-.36.74-.54,1.58-.54,2.5s.14,1.68.41,2.42.63,1.42,1.07,2.06c.44.64.95,1.24,1.51,1.8.56.56,1.14,1.11,1.73,1.64s1.17,1.06,1.73,1.59c.56.53,1.06,1.07,1.51,1.63.44.56.8,1.16,1.07,1.78.27.63.41,1.31.41,2.05,0,.53-.09,1.01-.28,1.46s-.45.83-.79,1.15c-.34.32-.75.57-1.23.76-.48.18-1.02.27-1.62.27-.66,0-1.27-.11-1.83-.34-.56-.23-1.05-.53-1.48-.91-.43-.38-.8-.82-1.09-1.32s-.51-1.02-.64-1.57h-.44l-.41,3.88c.26.18.59.37,1,.58.41.21.87.41,1.38.59.51.18,1.08.33,1.69.46.61.12,1.25.18,1.93.18,1.21,0,2.25-.19,3.12-.57s1.59-.88,2.15-1.49c.56-.61.97-1.3,1.23-2.07s.4-1.53.4-2.29c0-1.02-.24-1.97-.72-2.86s-1.08-1.73-1.8-2.54ZM133.3,30.34c.16.26.26.42.32.49v.07h-4.62v-.07c.02-.06.04-.15.05-.26.01-.12.02-.22.02-.32,0-.36-.05-.76-.14-1.2s-.28-.99-.55-1.64l-2.04-4.78c-.63-.02-1.47-.04-2.51-.04h-5.97c-.83,0-1.57.01-2.24.04l-1.94,4.64c-.17.43-.35.91-.54,1.42-.19.52-.29,1.04-.29,1.56,0,.15.01.28.03.38s.04.17.07.2v.07h-3.44v-.07c.2-.22.46-.62.76-1.19s.64-1.28,1-2.14l9.67-22.34h1.35l9.16,21.48c.21.5.44.99.67,1.47s.45.9.65,1.27c.2.38.38.69.54.95ZM125.63,21.01l-4.74-11.16-4.66,11.23h1.82c.65,0,1.32,0,2.01,0,.69,0,1.36-.01,2.02-.02s1.29-.01,1.9-.02,1.16-.01,1.65-.03ZM152.47,5.56c-.14.01-.35.02-.63.04s-.59.02-.94.04-.71.02-1.09.03-.74.01-1.08.02-.64.01-.91.02-.45,0-.57,0h-10.04c-.12,0-.31,0-.57,0s-.57-.01-.91-.02-.7-.01-1.08-.02-.74-.01-1.09-.03-.66-.02-.94-.04-.49-.02-.63-.04l-.51,2.85c.74-.21,1.58-.4,2.51-.58.81-.14,1.77-.27,2.88-.4s2.36-.18,3.74-.18v16.79c0,1-.01,1.87-.04,2.61s-.06,1.39-.11,1.92-.1.99-.16,1.35-.12.67-.19.91v.07h4.2v-.07c-.07-.25-.14-.55-.2-.91s-.12-.81-.16-1.35-.08-1.18-.11-1.92-.04-1.61-.04-2.61V7.25c1.38,0,2.63.06,3.74.18s2.07.25,2.88.4c.94.18,1.78.37,2.53.58l-.51-2.85ZM178.44,18.44c0,1.11-.13,2.21-.38,3.29-.26,1.08-.63,2.1-1.12,3.06s-1.1,1.85-1.82,2.66c-.72.81-1.54,1.52-2.46,2.11-.92.59-1.94,1.05-3.05,1.39-1.11.33-2.31.5-3.6.5-1.94,0-3.73-.31-5.37-.94s-3.06-1.51-4.25-2.66c-1.2-1.15-2.13-2.53-2.8-4.14s-1.01-3.4-1.01-5.37c0-1.11.13-2.21.38-3.29s.63-2.1,1.12-3.08c.49-.97,1.1-1.87,1.81-2.68s1.53-1.52,2.45-2.12c.92-.6,1.94-1.06,3.06-1.4,1.12-.33,2.32-.5,3.61-.5,1.94,0,3.73.32,5.37.96s3.06,1.54,4.25,2.69c1.19,1.15,2.13,2.54,2.8,4.16s1.01,3.4,1.01,5.36ZM174.74,19.5c0-1.8-.21-3.48-.62-5.02s-1.02-2.88-1.84-4.01c-.81-1.13-1.82-2.02-3.04-2.65-1.21-.64-2.62-.96-4.24-.96-1.29,0-2.47.23-3.53.69s-1.99,1.13-2.76,2.01c-.77.88-1.37,1.96-1.8,3.23-.43,1.28-.64,2.73-.64,4.36,0,1.79.2,3.47.61,5.02.41,1.55,1.01,2.9,1.83,4.03.81,1.14,1.83,2.03,3.04,2.68,1.22.65,2.63.98,4.25.98,1.29,0,2.47-.23,3.53-.7s1.99-1.15,2.76-2.04,1.37-1.98,1.8-3.26c.43-1.28.64-2.74.64-4.37Z"/></svg>